<svg xmlns="http://www.w3.org/2000/svg" viewBox="0 0 518 96">
  <defs>
    <linearGradient id="textGrad" x1="0%" y1="0%" x2="100%" y2="100%">
      <stop offset="0%" style="stop-color:#1E3A8A"/>
      <stop offset="100%" style="stop-color:#7C3AED"/>
    </linearGradient>
    <linearGradient id="ringGrad" x1="0%" y1="100%" x2="100%" y2="0%">
      <stop offset="0%" style="stop-color:#06B6D4"/>
      <stop offset="50%" style="stop-color:#3B82F6"/>
      <stop offset="100%" style="stop-color:#7C3AED"/>
    </linearGradient>
    <linearGradient id="checkGrad" x1="0%" y1="0%" x2="100%" y2="100%">
      <stop offset="0%" style="stop-color:#06B6D4"/>
      <stop offset="100%" style="stop-color:#10B981"/>
    </linearGradient>
  </defs>
  <path d="M 81.8 74.9 Q 81.8 77.9 79.3 80.0 Q 76.8 82.0 73.5 82.0 Q 71.2 82.0 69.3 81.0 Q 67.3 79.9 65.9 77.8 L 53.6 59.9 Q 52.2 58.0 50.8 57.1 Q 49.3 56.2 47.3 56.2 H 41.2 V 73.1 Q 41.2 77.1 38.9 79.4 Q 36.6 81.7 32.7 81.7 Q 28.7 81.7 26.4 79.4 Q 24.1 77.1 24.1 73.1 V 22.5 Q 24.1 18.6 26.1 16.6 Q 28.2 14.5 32.1 14.5 H 55.8 Q 67.9 14.5 74.0 19.7 Q 80.1 25.0 80.1 34.9 Q 80.1 42.5 76.0 47.7 Q 71.8 53.0 64.2 54.8 Q 67.4 55.2 69.7 56.8 Q 72.0 58.5 74.3 61.7 L 80.1 70.1 Q 81.8 72.6 81.8 74.9 Z M 63.9 35.5 Q 63.9 31.3 61.4 29.5 Q 58.9 27.6 53.1 27.6 H 41.0 V 43.1 H 53.1 Q 58.9 43.1 61.4 41.3 Q 63.9 39.5 63.9 35.5 Z" fill="url(#textGrad)" fill-rule="evenodd"/>
  <path d="M 100.5 53.1 V 22.5 Q 100.5 18.6 102.9 16.3 Q 105.2 14.0 109.1 14.0 Q 112.9 14.0 115.2 16.3 Q 117.6 18.6 117.6 22.5 V 53.7 Q 117.6 60.9 120.8 64.8 Q 124.0 68.7 130.0 68.7 Q 136.1 68.7 139.3 64.8 Q 142.5 60.9 142.5 53.7 V 22.5 Q 142.5 18.6 144.8 16.3 Q 147.2 14.0 151.0 14.0 Q 154.9 14.0 157.3 16.3 Q 159.6 18.6 159.6 22.5 V 53.1 Q 159.6 67.2 152.0 74.6 Q 144.4 82.0 130.0 82.0 Q 115.6 82.0 108.1 74.6 Q 100.5 67.2 100.5 53.1 Z" fill="url(#textGrad)"/>
  <g transform="translate(201.3, 48.0)">
    <circle cx="0" cy="0" r="24" fill="none" stroke="#E0E7FF" stroke-width="7"/>
    <circle cx="0" cy="0" r="24" fill="none" stroke="url(#ringGrad)" stroke-width="7"
      stroke-dasharray="150.8" stroke-dashoffset="33.2"
      stroke-linecap="round" transform="rotate(-90)"/>
    <polyline points="-7,1.5 -1.5,7 8.5,-5.5" fill="none" stroke="url(#checkGrad)" stroke-width="4" stroke-linecap="round" stroke-linejoin="round"/>
  </g>
  <path d="M 302.1 73.6 Q 302.1 76.7 299.7 79.1 Q 297.4 81.4 294.2 81.4 Q 290.7 81.4 287.7 78.4 L 260.8 50.8 V 73.1 Q 260.8 77.1 258.4 79.4 Q 256.1 81.7 252.0 81.7 Q 248.0 81.7 245.7 79.4 Q 243.4 77.1 243.4 73.1 V 22.5 Q 243.4 18.6 245.7 16.3 Q 248.0 14.0 252.0 14.0 Q 256.1 14.0 258.4 16.3 Q 260.8 18.6 260.8 22.5 V 43.3 L 287.4 16.6 Q 289.8 14.0 292.9 14.0 Q 296.1 14.0 298.4 16.3 Q 300.8 18.6 300.8 21.8 Q 300.8 24.9 298.0 27.5 L 278.7 46.5 L 299.6 68.1 Q 302.1 70.5 302.1 73.6 Z" fill="url(#textGrad)"/>
  <path d="M 330.9 29.9 Q 330.9 26.2 332.3 23.5 Q 333.7 20.8 336.4 19.3 Q 339.1 17.9 342.7 17.9 Q 346.3 17.9 348.9 19.3 Q 351.6 20.8 353.0 23.5 Q 354.4 26.2 354.4 29.9 Q 354.4 33.6 353.0 36.3 Q 351.5 39.0 348.9 40.5 Q 346.2 42.0 342.7 42.0 Q 339.1 42.0 336.4 40.5 Q 333.7 39.0 332.3 36.3 Q 330.9 33.6 330.9 29.9 Z M 348.3 29.9 Q 348.3 26.3 346.8 24.4 Q 345.3 22.6 342.7 22.6 Q 340.0 22.6 338.5 24.4 Q 337.0 26.3 337.0 29.9 Q 337.0 33.6 338.5 35.4 Q 340.0 37.3 342.7 37.3 Q 345.3 37.3 346.8 35.4 Q 348.3 33.5 348.3 29.9 Z" fill="#94A3B8" fill-rule="evenodd"/>
  <path d="M 381.8 39.0 Q 381.8 40.1 380.9 41.0 Q 380.1 41.8 379.0 41.8 Q 377.7 41.8 376.7 40.7 L 367.2 31.0 V 38.9 Q 367.2 40.3 366.4 41.1 Q 365.5 41.9 364.1 41.9 Q 362.7 41.9 361.9 41.1 Q 361.0 40.3 361.0 38.9 V 21.0 Q 361.0 19.6 361.9 18.8 Q 362.7 18.0 364.1 18.0 Q 365.5 18.0 366.4 18.8 Q 367.2 19.6 367.2 21.0 V 28.3 L 376.6 18.9 Q 377.4 18.0 378.5 18.0 Q 379.6 18.0 380.5 18.8 Q 381.3 19.6 381.3 20.7 Q 381.3 21.8 380.3 22.8 L 373.5 29.5 L 380.9 37.1 Q 381.8 37.9 381.8 39.0 Z" fill="#94A3B8"/>
  <path d="M 407.7 39.5 Q 407.7 40.6 406.9 41.3 Q 406.0 42.0 404.8 42.0 Q 404.0 42.0 403.3 41.6 Q 402.6 41.3 402.1 40.5 L 397.8 34.2 Q 397.3 33.5 396.8 33.2 Q 396.3 32.9 395.6 32.9 H 393.4 V 38.9 Q 393.4 40.3 392.6 41.1 Q 391.8 41.9 390.4 41.9 Q 389.0 41.9 388.2 41.1 Q 387.3 40.3 387.3 38.9 V 21.0 Q 387.3 19.6 388.1 18.9 Q 388.8 18.2 390.2 18.2 H 398.6 Q 402.8 18.2 405.0 20.0 Q 407.1 21.9 407.1 25.4 Q 407.1 28.0 405.7 29.9 Q 404.2 31.8 401.5 32.4 Q 402.6 32.6 403.4 33.1 Q 404.3 33.7 405.1 34.8 L 407.1 37.8 Q 407.7 38.7 407.7 39.5 Z M 401.4 25.6 Q 401.4 24.1 400.5 23.5 Q 399.6 22.8 397.6 22.8 H 393.3 V 28.3 H 397.6 Q 399.6 28.3 400.5 27.6 Q 401.4 27.0 401.4 25.6 Z" fill="#94A3B8" fill-rule="evenodd"/>
  <path d="M 336.8 70.9 V 55.1 H 332.1 Q 330.6 55.1 329.9 54.5 Q 329.2 53.9 329.2 52.6 Q 329.2 51.4 329.9 50.8 Q 330.6 50.2 332.1 50.2 H 347.7 Q 349.2 50.2 349.9 50.8 Q 350.6 51.4 350.6 52.6 Q 350.6 53.9 349.9 54.5 Q 349.2 55.1 347.7 55.1 H 343.0 V 70.9 Q 343.0 72.2 342.1 73.0 Q 341.3 73.9 339.9 73.9 Q 338.5 73.9 337.6 73.0 Q 336.8 72.2 336.8 70.9 Z" fill="#94A3B8"/>
  <path d="M 376.0 71.5 Q 376.0 72.6 375.1 73.3 Q 374.2 74.0 373.0 74.0 Q 372.2 74.0 371.5 73.6 Q 370.8 73.3 370.3 72.5 L 366.0 66.2 Q 365.5 65.5 365.0 65.2 Q 364.5 64.9 363.8 64.9 H 361.6 V 70.9 Q 361.6 72.3 360.8 73.1 Q 360.0 73.9 358.6 73.9 Q 357.2 73.9 356.4 73.1 Q 355.6 72.3 355.6 70.9 V 53.0 Q 355.6 51.6 356.3 50.9 Q 357.0 50.2 358.4 50.2 H 366.8 Q 371.1 50.2 373.2 52.0 Q 375.4 53.9 375.4 57.4 Q 375.4 60.0 373.9 61.9 Q 372.4 63.8 369.8 64.4 Q 370.9 64.6 371.7 65.1 Q 372.5 65.7 373.3 66.8 L 375.4 69.8 Q 376.0 70.7 376.0 71.5 Z M 369.6 57.6 Q 369.6 56.1 368.7 55.5 Q 367.9 54.8 365.8 54.8 H 361.5 V 60.3 H 365.8 Q 367.9 60.3 368.7 59.6 Q 369.6 59.0 369.6 57.6 Z" fill="#94A3B8" fill-rule="evenodd"/>
  <path d="M 405.0 71.2 Q 405.0 72.3 404.1 73.0 Q 403.2 73.8 402.1 73.8 Q 401.3 73.8 400.7 73.4 Q 400.1 73.0 399.7 72.2 L 398.2 68.8 H 387.4 L 385.8 72.2 Q 385.5 73.0 384.8 73.4 Q 384.2 73.8 383.4 73.8 Q 382.3 73.8 381.4 73.0 Q 380.4 72.3 380.4 71.2 Q 380.4 70.6 380.7 69.9 L 389.5 51.8 Q 390.0 50.9 390.8 50.5 Q 391.7 50.0 392.7 50.0 Q 393.7 50.0 394.6 50.5 Q 395.5 50.9 395.9 51.8 L 404.7 69.9 Q 405.0 70.6 405.0 71.2 Z M 389.4 64.2 H 396.1 L 392.8 56.8 Z" fill="#94A3B8" fill-rule="evenodd"/>
  <path d="M 410.0 61.9 Q 410.0 58.3 411.4 55.5 Q 412.9 52.8 415.5 51.3 Q 418.2 49.9 421.7 49.9 Q 426.0 49.9 429.2 52.1 Q 429.7 52.5 430.0 53.0 Q 430.2 53.4 430.2 54.2 Q 430.2 55.2 429.6 55.9 Q 429.1 56.6 428.2 56.6 Q 427.7 56.6 427.3 56.5 Q 426.9 56.3 426.4 56.0 Q 425.2 55.3 424.2 55.0 Q 423.2 54.7 422.1 54.7 Q 419.1 54.7 417.6 56.5 Q 416.2 58.3 416.2 61.9 Q 416.2 65.6 417.6 67.4 Q 419.1 69.2 422.1 69.2 Q 423.1 69.2 424.0 68.8 Q 424.9 68.5 426.4 67.9 Q 427.1 67.5 427.4 67.4 Q 427.8 67.2 428.2 67.2 Q 429.1 67.2 429.6 67.9 Q 430.2 68.7 430.2 69.7 Q 430.2 70.4 430.0 70.9 Q 429.7 71.4 429.2 71.8 Q 426.0 74.0 421.7 74.0 Q 418.2 74.0 415.5 72.5 Q 412.9 71.1 411.4 68.3 Q 410.0 65.6 410.0 61.9 Z" fill="#94A3B8"/>
  <path d="M 456.9 71.0 Q 456.9 72.1 456.1 73.0 Q 455.3 73.8 454.1 73.8 Q 452.9 73.8 451.9 72.7 L 442.3 63.0 V 70.9 Q 442.3 72.3 441.5 73.1 Q 440.7 73.9 439.2 73.9 Q 437.8 73.9 437.0 73.1 Q 436.2 72.3 436.2 70.9 V 53.0 Q 436.2 51.6 437.0 50.8 Q 437.8 50.0 439.2 50.0 Q 440.7 50.0 441.5 50.8 Q 442.3 51.6 442.3 53.0 V 60.3 L 451.7 50.9 Q 452.6 50.0 453.7 50.0 Q 454.8 50.0 455.6 50.8 Q 456.5 51.6 456.5 52.7 Q 456.5 53.8 455.5 54.8 L 448.7 61.5 L 456.1 69.1 Q 456.9 69.9 456.9 71.0 Z" fill="#94A3B8"/>
  <path d="M 462.5 70.9 V 53.0 Q 462.5 51.6 463.2 50.9 Q 464.0 50.2 465.3 50.2 H 476.9 Q 478.3 50.2 479.1 50.8 Q 479.8 51.4 479.8 52.5 Q 479.8 54.9 476.9 54.9 H 468.5 V 59.4 H 476.2 Q 479.1 59.4 479.1 61.7 Q 479.1 62.9 478.4 63.5 Q 477.7 64.1 476.2 64.1 H 468.5 V 69.0 H 476.9 Q 479.8 69.0 479.8 71.4 Q 479.8 72.5 479.1 73.1 Q 478.3 73.7 476.9 73.7 H 465.3 Q 464.0 73.7 463.2 73.0 Q 462.5 72.2 462.5 70.9 Z" fill="#94A3B8"/>
  <path d="M 505.8 71.5 Q 505.8 72.6 504.9 73.3 Q 504.1 74.0 502.9 74.0 Q 502.1 74.0 501.4 73.6 Q 500.7 73.3 500.2 72.5 L 495.8 66.2 Q 495.4 65.5 494.9 65.2 Q 494.3 64.9 493.6 64.9 H 491.5 V 70.9 Q 491.5 72.3 490.7 73.1 Q 489.9 73.9 488.5 73.9 Q 487.1 73.9 486.2 73.1 Q 485.4 72.3 485.4 70.9 V 53.0 Q 485.4 51.6 486.2 50.9 Q 486.9 50.2 488.3 50.2 H 496.6 Q 500.9 50.2 503.1 52.0 Q 505.2 53.9 505.2 57.4 Q 505.2 60.0 503.8 61.9 Q 502.3 63.8 499.6 64.4 Q 500.7 64.6 501.5 65.1 Q 502.4 65.7 503.2 66.8 L 505.2 69.8 Q 505.8 70.7 505.8 71.5 Z M 499.5 57.6 Q 499.5 56.1 498.6 55.5 Q 497.7 54.8 495.7 54.8 H 491.4 V 60.3 H 495.7 Q 497.7 60.3 498.6 59.6 Q 499.5 59.0 499.5 57.6 Z" fill="#94A3B8" fill-rule="evenodd"/>
</svg>
