<svg xmlns="http://www.w3.org/2000/svg" viewBox="0 0 321 96">
  <defs>
    <linearGradient id="textGrad" x1="0%" y1="0%" x2="100%" y2="100%">
      <stop offset="0%" style="stop-color:#1E3A8A"/>
      <stop offset="100%" style="stop-color:#7C3AED"/>
    </linearGradient>
    <linearGradient id="ringGrad" x1="0%" y1="100%" x2="100%" y2="0%">
      <stop offset="0%" style="stop-color:#06B6D4"/>
      <stop offset="50%" style="stop-color:#3B82F6"/>
      <stop offset="100%" style="stop-color:#7C3AED"/>
    </linearGradient>
    <linearGradient id="checkGrad" x1="0%" y1="0%" x2="100%" y2="100%">
      <stop offset="0%" style="stop-color:#06B6D4"/>
      <stop offset="100%" style="stop-color:#10B981"/>
    </linearGradient>
  </defs>
  <path d="M 81.8 74.9 Q 81.8 77.9 79.3 80.0 Q 76.8 82.0 73.5 82.0 Q 71.2 82.0 69.3 81.0 Q 67.3 79.9 65.9 77.8 L 53.6 59.9 Q 52.2 58.0 50.8 57.1 Q 49.3 56.2 47.3 56.2 H 41.2 V 73.1 Q 41.2 77.1 38.9 79.4 Q 36.6 81.7 32.7 81.7 Q 28.7 81.7 26.4 79.4 Q 24.1 77.1 24.1 73.1 V 22.5 Q 24.1 18.6 26.1 16.6 Q 28.2 14.5 32.1 14.5 H 55.8 Q 67.9 14.5 74.0 19.7 Q 80.1 25.0 80.1 34.9 Q 80.1 42.5 76.0 47.7 Q 71.8 53.0 64.2 54.8 Q 67.4 55.2 69.7 56.8 Q 72.0 58.5 74.3 61.7 L 80.1 70.1 Q 81.8 72.6 81.8 74.9 Z M 63.9 35.5 Q 63.9 31.3 61.4 29.5 Q 58.9 27.6 53.1 27.6 H 41.0 V 43.1 H 53.1 Q 58.9 43.1 61.4 41.3 Q 63.9 39.5 63.9 35.5 Z" fill="url(#textGrad)" fill-rule="evenodd"/>
  <path d="M 100.5 53.1 V 22.5 Q 100.5 18.6 102.9 16.3 Q 105.2 14.0 109.1 14.0 Q 112.9 14.0 115.2 16.3 Q 117.6 18.6 117.6 22.5 V 53.7 Q 117.6 60.9 120.8 64.8 Q 124.0 68.7 130.0 68.7 Q 136.1 68.7 139.3 64.8 Q 142.5 60.9 142.5 53.7 V 22.5 Q 142.5 18.6 144.8 16.3 Q 147.2 14.0 151.0 14.0 Q 154.9 14.0 157.3 16.3 Q 159.6 18.6 159.6 22.5 V 53.1 Q 159.6 67.2 152.0 74.6 Q 144.4 82.0 130.0 82.0 Q 115.6 82.0 108.1 74.6 Q 100.5 67.2 100.5 53.1 Z" fill="url(#textGrad)"/>
  <g transform="translate(201.3, 48.0)">
    <circle cx="0" cy="0" r="24" fill="none" stroke="#E0E7FF" stroke-width="7"/>
    <circle cx="0" cy="0" r="24" fill="none" stroke="url(#ringGrad)" stroke-width="7"
      stroke-dasharray="150.8" stroke-dashoffset="33.2"
      stroke-linecap="round" transform="rotate(-90)"/>
    <polyline points="-7,1.5 -1.5,7 8.5,-5.5" fill="none" stroke="url(#checkGrad)" stroke-width="4" stroke-linecap="round" stroke-linejoin="round"/>
  </g>
  <path d="M 302.1 73.6 Q 302.1 76.7 299.7 79.1 Q 297.4 81.4 294.2 81.4 Q 290.7 81.4 287.7 78.4 L 260.8 50.8 V 73.1 Q 260.8 77.1 258.4 79.4 Q 256.1 81.7 252.0 81.7 Q 248.0 81.7 245.7 79.4 Q 243.4 77.1 243.4 73.1 V 22.5 Q 243.4 18.6 245.7 16.3 Q 248.0 14.0 252.0 14.0 Q 256.1 14.0 258.4 16.3 Q 260.8 18.6 260.8 22.5 V 43.3 L 287.4 16.6 Q 289.8 14.0 292.9 14.0 Q 296.1 14.0 298.4 16.3 Q 300.8 18.6 300.8 21.8 Q 300.8 24.9 298.0 27.5 L 278.7 46.5 L 299.6 68.1 Q 302.1 70.5 302.1 73.6 Z" fill="url(#textGrad)"/>
</svg>
